<svg width="30" height="30" viewBox="0 0 30 30" fill="none" xmlns="http://www.w3.org/2000/svg">
<path d="M26 23.6518C26 24.3964 26.6036 25 27.3482 25L27.5609 25C28.3055 25 28.9091 24.3964 28.9091 23.6518L28.9091 6.34823C28.9091 5.60362 28.3055 5 27.5609 5L27.3482 5C26.6036 5 26 5.60362 26 6.34823L26 23.6518Z" fill="#191414"/>
<path d="M26 23.6518C26 24.3964 26.6036 25 27.3482 25L27.5609 25C28.3055 25 28.9091 24.3964 28.9091 23.6518L28.9091 6.34823C28.9091 5.60362 28.3055 5 27.5609 5L27.3482 5C26.6036 5 26 5.60362 26 6.34823L26 23.6518Z" fill="#191414"/>
<path d="M24.75 16.299C25.75 15.7217 25.75 14.2783 24.75 13.701L11.25 5.90673C10.25 5.32938 9 6.05107 9 7.20577L9 22.7942C9 23.9489 10.25 24.6706 11.25 24.0933L24.75 16.299Z" stroke="#191414" stroke-width="3"/>
<path d="M24.75 16.299C25.75 15.7217 25.75 14.2783 24.75 13.701L11.25 5.90673C10.25 5.32938 9 6.05107 9 7.20577L9 22.7942C9 23.9489 10.25 24.6706 11.25 24.0933L24.75 16.299Z" stroke="#191414" stroke-width="3"/>
</svg>
