<svg width="30" height="30" viewBox="0 0 30 30" fill="none" xmlns="http://www.w3.org/2000/svg">
<path d="M19.6129 9.12903C19.6129 8.57675 19.1652 8.12903 18.6129 8.12903C18.0606 8.12903 17.6129 8.57675 17.6129 9.12903H19.6129ZM17.6129 20.4194C17.6129 20.9716 18.0606 21.4194 18.6129 21.4194C19.1652 21.4194 19.6129 20.9716 19.6129 20.4194H17.6129ZM10.3871 20.4194C10.3871 20.9716 10.8348 21.4194 11.3871 21.4194C11.9394 21.4194 12.3871 20.9716 12.3871 20.4194H10.3871ZM12.3871 9.12903C12.3871 8.57675 11.9394 8.12903 11.3871 8.12903C10.8348 8.12903 10.3871 8.57675 10.3871 9.12903H12.3871ZM17.6129 9.12903V20.4194H19.6129V9.12903H17.6129ZM12.3871 20.4194V9.12903H10.3871V20.4194H12.3871ZM28 15C28 22.1797 22.1797 28 15 28V30C23.2843 30 30 23.2843 30 15H28ZM15 28C7.8203 28 2 22.1797 2 15H0C0 23.2843 6.71573 30 15 30V28ZM2 15C2 7.8203 7.8203 2 15 2V0C6.71573 0 0 6.71573 0 15H2ZM15 2C22.1797 2 28 7.8203 28 15H30C30 6.71573 23.2843 0 15 0V2Z" fill="#F1F1F1"/>
<path d="M19.6129 9.12903C19.6129 8.57675 19.1652 8.12903 18.6129 8.12903C18.0606 8.12903 17.6129 8.57675 17.6129 9.12903H19.6129ZM17.6129 20.4194C17.6129 20.9716 18.0606 21.4194 18.6129 21.4194C19.1652 21.4194 19.6129 20.9716 19.6129 20.4194H17.6129ZM10.3871 20.4194C10.3871 20.9716 10.8348 21.4194 11.3871 21.4194C11.9394 21.4194 12.3871 20.9716 12.3871 20.4194H10.3871ZM12.3871 9.12903C12.3871 8.57675 11.9394 8.12903 11.3871 8.12903C10.8348 8.12903 10.3871 8.57675 10.3871 9.12903H12.3871ZM17.6129 9.12903V20.4194H19.6129V9.12903H17.6129ZM12.3871 20.4194V9.12903H10.3871V20.4194H12.3871ZM28 15C28 22.1797 22.1797 28 15 28V30C23.2843 30 30 23.2843 30 15H28ZM15 28C7.8203 28 2 22.1797 2 15H0C0 23.2843 6.71573 30 15 30V28ZM2 15C2 7.8203 7.8203 2 15 2V0C6.71573 0 0 6.71573 0 15H2ZM15 2C22.1797 2 28 7.8203 28 15H30C30 6.71573 23.2843 0 15 0V2Z" fill="#191414"/>
</svg>
