<svg width="72" height="72" viewBox="0 0 72 72" fill="none" xmlns="http://www.w3.org/2000/svg">
<path d="M29.6544 49.1613H28.1544C28.1544 49.7074 28.4512 50.2103 28.9292 50.4743C29.4073 50.7384 29.991 50.7217 30.4532 50.4309L29.6544 49.1613ZM29.6544 21.7419L30.4992 20.5025C30.0398 20.1894 29.4449 20.156 28.9534 20.4158C28.4619 20.6756 28.1544 21.186 28.1544 21.7419H29.6544ZM49.3101 35.1402L48.4653 36.3797L49.3101 35.1402ZM49.2795 36.8129L48.4806 35.5433L49.2795 36.8129ZM31.1544 49.1613V21.7419H28.1544V49.1613H31.1544ZM68.5 36C68.5 53.9493 53.9493 68.5 36 68.5V71.5C55.6061 71.5 71.5 55.6061 71.5 36H68.5ZM36 68.5C18.0507 68.5 3.5 53.9493 3.5 36H0.5C0.5 55.6061 16.3939 71.5 36 71.5V68.5ZM3.5 36C3.5 18.0507 18.0507 3.5 36 3.5V0.5C16.3939 0.5 0.5 16.3939 0.5 36H3.5ZM36 3.5C53.9493 3.5 68.5 18.0507 68.5 36H71.5C71.5 16.3939 55.6061 0.5 36 0.5V3.5ZM28.8095 22.9814L48.4653 36.3797L50.155 33.9008L30.4992 20.5025L28.8095 22.9814ZM48.4806 35.5433L28.8555 47.8917L30.4532 50.4309L50.0783 38.0825L48.4806 35.5433ZM48.4653 36.3797C48.1676 36.1768 48.1757 35.7352 48.4806 35.5433L50.0783 38.0825C51.6028 37.1233 51.6433 34.9153 50.155 33.9008L48.4653 36.3797Z" fill="#F1F1F1"/>
<path d="M29.6544 49.1613H28.1544C28.1544 49.7074 28.4512 50.2103 28.9292 50.4743C29.4073 50.7384 29.991 50.7217 30.4532 50.4309L29.6544 49.1613ZM29.6544 21.7419L30.4992 20.5025C30.0398 20.1894 29.4449 20.156 28.9534 20.4158C28.4619 20.6756 28.1544 21.186 28.1544 21.7419H29.6544ZM49.3101 35.1402L48.4653 36.3797L49.3101 35.1402ZM49.2795 36.8129L48.4806 35.5433L49.2795 36.8129ZM31.1544 49.1613V21.7419H28.1544V49.1613H31.1544ZM68.5 36C68.5 53.9493 53.9493 68.5 36 68.5V71.5C55.6061 71.5 71.5 55.6061 71.5 36H68.5ZM36 68.5C18.0507 68.5 3.5 53.9493 3.5 36H0.5C0.5 55.6061 16.3939 71.5 36 71.5V68.5ZM3.5 36C3.5 18.0507 18.0507 3.5 36 3.5V0.5C16.3939 0.5 0.5 16.3939 0.5 36H3.5ZM36 3.5C53.9493 3.5 68.5 18.0507 68.5 36H71.5C71.5 16.3939 55.6061 0.5 36 0.5V3.5ZM28.8095 22.9814L48.4653 36.3797L50.155 33.9008L30.4992 20.5025L28.8095 22.9814ZM48.4806 35.5433L28.8555 47.8917L30.4532 50.4309L50.0783 38.0825L48.4806 35.5433ZM48.4653 36.3797C48.1676 36.1768 48.1757 35.7352 48.4806 35.5433L50.0783 38.0825C51.6028 37.1233 51.6433 34.9153 50.155 33.9008L48.4653 36.3797Z" fill="white"/>
</svg>
