<svg width="30" height="30" viewBox="0 0 30 30" fill="none" xmlns="http://www.w3.org/2000/svg">
<path d="M12.3871 20.4194H11.3871C11.3871 20.7834 11.585 21.1187 11.9037 21.2947C12.2223 21.4707 12.6115 21.4596 12.9197 21.2657L12.3871 20.4194ZM12.3871 9.12903L12.9503 8.30274C12.6441 8.09398 12.2475 8.07173 11.9198 8.24494C11.5921 8.41815 11.3871 8.75839 11.3871 9.12903H12.3871ZM19.708 15.8129L19.1755 14.9665L19.708 15.8129ZM13.3871 20.4194V9.12903H11.3871V20.4194H13.3871ZM28 15C28 22.1797 22.1797 28 15 28V30C23.2843 30 30 23.2843 30 15H28ZM15 28C7.8203 28 2 22.1797 2 15H0C0 23.2843 6.71573 30 15 30V28ZM2 15C2 7.8203 7.8203 2 15 2V0C6.71573 0 0 6.71573 0 15H2ZM15 2C22.1797 2 28 7.8203 28 15H30C30 6.71573 23.2843 0 15 0V2ZM11.8239 9.95533L19.1755 14.9665L20.3019 13.3139L12.9503 8.30274L11.8239 9.95533ZM19.1755 14.9665L11.8545 19.573L12.9197 21.2657L20.2406 16.6593L19.1755 14.9665ZM19.1755 14.9665V14.9665L20.2406 16.6593C21.4602 15.8919 21.4926 14.1256 20.3019 13.3139L19.1755 14.9665Z" fill="#F1F1F1"/>
<path d="M12.3871 20.4194H11.3871C11.3871 20.7834 11.585 21.1187 11.9037 21.2947C12.2223 21.4707 12.6115 21.4596 12.9197 21.2657L12.3871 20.4194ZM12.3871 9.12903L12.9503 8.30274C12.6441 8.09398 12.2475 8.07173 11.9198 8.24494C11.5921 8.41815 11.3871 8.75839 11.3871 9.12903H12.3871ZM19.708 15.8129L19.1755 14.9665L19.708 15.8129ZM13.3871 20.4194V9.12903H11.3871V20.4194H13.3871ZM28 15C28 22.1797 22.1797 28 15 28V30C23.2843 30 30 23.2843 30 15H28ZM15 28C7.8203 28 2 22.1797 2 15H0C0 23.2843 6.71573 30 15 30V28ZM2 15C2 7.8203 7.8203 2 15 2V0C6.71573 0 0 6.71573 0 15H2ZM15 2C22.1797 2 28 7.8203 28 15H30C30 6.71573 23.2843 0 15 0V2ZM11.8239 9.95533L19.1755 14.9665L20.3019 13.3139L12.9503 8.30274L11.8239 9.95533ZM19.1755 14.9665L11.8545 19.573L12.9197 21.2657L20.2406 16.6593L19.1755 14.9665ZM19.1755 14.9665V14.9665L20.2406 16.6593C21.4602 15.8919 21.4926 14.1256 20.3019 13.3139L19.1755 14.9665Z" fill="#191414"/>
</svg>
