<svg width="72" height="72" viewBox="0 0 72 72" fill="none" xmlns="http://www.w3.org/2000/svg">
<path d="M46.2742 21.7419C46.2742 20.9135 45.6026 20.2419 44.7742 20.2419C43.9458 20.2419 43.2742 20.9135 43.2742 21.7419H46.2742ZM43.2742 49.1613C43.2742 49.9897 43.9458 50.6613 44.7742 50.6613C45.6026 50.6613 46.2742 49.9897 46.2742 49.1613H43.2742ZM25.7258 49.1613C25.7258 49.9897 26.3974 50.6613 27.2258 50.6613C28.0542 50.6613 28.7258 49.9897 28.7258 49.1613H25.7258ZM28.7258 21.7419C28.7258 20.9135 28.0542 20.2419 27.2258 20.2419C26.3974 20.2419 25.7258 20.9135 25.7258 21.7419H28.7258ZM43.2742 21.7419V49.1613H46.2742V21.7419H43.2742ZM28.7258 49.1613V21.7419H25.7258V49.1613H28.7258ZM68.5 36C68.5 53.9493 53.9493 68.5 36 68.5V71.5C55.6061 71.5 71.5 55.6061 71.5 36H68.5ZM36 68.5C18.0507 68.5 3.5 53.9493 3.5 36H0.5C0.5 55.6061 16.3939 71.5 36 71.5V68.5ZM3.5 36C3.5 18.0507 18.0507 3.5 36 3.5V0.5C16.3939 0.5 0.5 16.3939 0.5 36H3.5ZM36 3.5C53.9493 3.5 68.5 18.0507 68.5 36H71.5C71.5 16.3939 55.6061 0.5 36 0.5V3.5Z" fill="#F1F1F1"/>
<path d="M46.2742 21.7419C46.2742 20.9135 45.6026 20.2419 44.7742 20.2419C43.9458 20.2419 43.2742 20.9135 43.2742 21.7419H46.2742ZM43.2742 49.1613C43.2742 49.9897 43.9458 50.6613 44.7742 50.6613C45.6026 50.6613 46.2742 49.9897 46.2742 49.1613H43.2742ZM25.7258 49.1613C25.7258 49.9897 26.3974 50.6613 27.2258 50.6613C28.0542 50.6613 28.7258 49.9897 28.7258 49.1613H25.7258ZM28.7258 21.7419C28.7258 20.9135 28.0542 20.2419 27.2258 20.2419C26.3974 20.2419 25.7258 20.9135 25.7258 21.7419H28.7258ZM43.2742 21.7419V49.1613H46.2742V21.7419H43.2742ZM28.7258 49.1613V21.7419H25.7258V49.1613H28.7258ZM68.5 36C68.5 53.9493 53.9493 68.5 36 68.5V71.5C55.6061 71.5 71.5 55.6061 71.5 36H68.5ZM36 68.5C18.0507 68.5 3.5 53.9493 3.5 36H0.5C0.5 55.6061 16.3939 71.5 36 71.5V68.5ZM3.5 36C3.5 18.0507 18.0507 3.5 36 3.5V0.5C16.3939 0.5 0.5 16.3939 0.5 36H3.5ZM36 3.5C53.9493 3.5 68.5 18.0507 68.5 36H71.5C71.5 16.3939 55.6061 0.5 36 0.5V3.5Z" fill="white"/>
</svg>
